PathFileType	4	(X/Y/Z)	E-squat_0-154.trc
DataRate	CameraRate	NumFrames	NumMarkers	Units	OrigDataRate	OrigDataStartFrame	OrigNumFrames
30	30	7	22	m	30	115	154
Frame#	Time	Hip			RHip			RKnee			RAnkle			RBigToe			RSmallToe			RHeel			LHip			LKnee			LAnkle			LBigToe			LSmallToe			LHeel			Neck			Head			Nose			RShoulder			RElbow			RWrist			LShoulder			LElbow			LWrist			
		X1	Y1	Z1	X2	Y2	Z2	X3	Y3	Z3	X4	Y4	Z4	X5	Y5	Z5	X6	Y6	Z6	X7	Y7	Z7	X8	Y8	Z8	X9	Y9	Z9	X10	Y10	Z10	X11	Y11	Z11	X12	Y12	Z12	X13	Y13	Z13	X14	Y14	Z14	X15	Y15	Z15	X16	Y16	Z16	X17	Y17	Z17	X18	Y18	Z18	X19	Y19	Z19	X20	Y20	Z20	X21	Y21	Z21	X22	Y22	Z22	
115	3.8333333333333335	0.001145835016145869	0.8120162592708173	0.09275694818997636	-0.10590981089706178	0.7893644252537226	0.07269758398093888	-0.11441110353273161	0.38984964133404415	0.041319822075893846	-0.14094703911190398	0.00887954322381338	0.007941353669903596	-0.11494352628290182	-0.07746634164790243	0.1909320460751952	-0.1780195983666651	-0.08176988035108197	0.15021726510336816	-0.13241759318808088	-0.06604193239327585	-0.029308223662333023	0.09959068782993803	0.7868886522145001	0.11220573225797299	0.1161570377710368	0.37776646888366533	0.03873982359831048	0.12973508954059595	-0.0019561264811658002	0.0024608859035337117	0.12802025260201846	-0.0830668565801695	0.17180367840980562	0.18674778065126912	-0.07765581089004198	0.15620363804237505	0.11536060802209011	-0.05896615802096367	-0.02868185235651823	-0.007483007625876898	1.4144614215272948	0.1595714829526581	-0.015546756520464174	1.6479097820876645	0.18096249122535196	-0.030269409080552187	1.506274070393171	0.27472198116545243	-0.16368050883050853	1.3240997084540622	0.11858998327342044	-0.20010634712314632	1.0426210723329283	0.06580516553585017	-0.22630666615567657	0.7904757931931427	0.10494401714513414	0.15205113130274822	1.3353256195422252	0.1751171450446065	0.19700726176181768	1.043695040465481	0.1423713097427134	0.22996713901153162	0.7996942564719771	0.1927960417158839	
116	3.866666666666666	0.0013501340652494521	0.8126894721177212	0.08804761913352173	-0.10550589865808747	0.7896981164738174	0.0659405461867581	-0.11377088123557777	0.3907136760081164	0.043814339249110795	-0.14118137104150671	0.009511659475924222	0.007986858712360356	-0.11489515752135401	-0.07696590038677176	0.19085235252430285	-0.17611477967905284	-0.08117419331423707	0.14994741364246492	-0.13251867670697978	-0.06488315435730319	-0.02978834048327788	0.09980613249829064	0.7871823740706305	0.1087697191616805	0.11604051862409095	0.37835520407653866	0.04027272319043602	0.12961698009928324	-0.001089845971242907	0.002069906219953592	0.12876820188927207	-0.08163466896086323	0.17197502620967928	0.18675892915433653	-0.07627359632924031	0.15541447513289933	0.11340800845097454	-0.05773081700717153	-0.031272910645968675	-0.007206248920089535	1.4134252324713414	0.16489280624994582	-0.016759175890048193	1.6457560012350723	0.1906493354883227	-0.024519428417489025	1.5041693093441661	0.2832447106192834	-0.16506413397080666	1.3236073482999429	0.12170670147638064	-0.20211467552063264	1.0435822629974965	0.06774734994450894	-0.2271238937865696	0.7932309454640739	0.10540524148630152	0.15194237783204692	1.3338118622198527	0.18031784700288478	0.19682247654308127	1.045023633881859	0.14514087576758394	0.22966257333564827	0.8001907354987929	0.19609743573940533	
117	3.9	7.463181582858954e-05	0.8139158256662391	0.08019385033679417	-0.10548441118346581	0.7909128653873481	0.056762003174452264	-0.11292348907037891	0.3918053065744625	0.04871376095256889	-0.1409943733034564	0.008816765210157063	0.006971845151241247	-0.11531617539202976	-0.07643346149008777	0.1900616097174944	-0.1747299182413227	-0.0804127883529637	0.14893095440052323	-0.1319624927933354	-0.06403174226271181	-0.029775694517690448	0.09885723238911745	0.788176861778305	0.10358306958461165	0.11549711305842501	0.3791970556059743	0.0453644113036666	0.12981601932800604	-0.0007710700672190892	0.003070186085738865	0.1284310854733768	-0.07990307943163515	0.17324564151239244	0.18701774034000423	-0.07425228007190947	0.15367918440992273	0.11329284344587899	-0.05727778823133875	-0.03288371946722087	-0.007629770903884042	1.4113111890051797	0.17325724679771576	-0.018205376260174166	1.643206286428822	0.20239771554868233	-0.019119946967431037	1.5013894473485736	0.29613449837047157	-0.16662752594332303	1.3230743815929895	0.12601389318844475	-0.2034490659223243	1.044786259171063	0.0695399709028551	-0.22818433941152585	0.7964318695006646	0.10817555807230395	0.1514671226921098	1.3308055453161343	0.1869737650510659	0.19690582703315213	1.0467435545891235	0.14403106492758558	0.2295965373262348	0.7998464457064784	0.18724035218797563	
118	3.933333333333333	-0.0026913661924942533	0.8147699760252762	0.06761466766761902	-0.10709307655659435	0.7932012680622613	0.04427582549449615	-0.11296080687358587	0.39236341637327043	0.055763334662108796	-0.14009841335440507	0.007410868340900579	0.00596373431361825	-0.11609696349395021	-0.07614090503964359	0.18926521296091753	-0.17499064508543072	-0.0800163046327549	0.14809663748278423	-0.13071273858377136	-0.06373055932537496	-0.029751603332636666	0.09651033823821557	0.7900337554836806	0.09454608731593496	0.1142472348607657	0.3794545427211652	0.05296893506073065	0.1300179282229481	-0.0017959265534111955	0.005287913413924185	0.12778961526545224	-0.07966996243256745	0.17495679195932423	0.18772226810362222	-0.07315362751291085	0.15337686427974273	0.11421924710189797	-0.0578420342426205	-0.03227182756921847	-0.008898784467641873	1.407624114479036	0.18408947420580657	-0.01902702829353112	1.6397724756978707	0.21570737487732974	-0.01706768423093666	1.4965960124279083	0.3120529083714642	-0.1678213474551706	1.3215011803493129	0.13311724222196933	-0.20453334938498222	1.0455031040195069	0.06976273668176002	-0.22980088499281123	0.7983780432706774	0.11206649237505767	0.15061132430890098	1.3265462386903766	0.19484361245179074	0.19691473264837	1.047019250775944	0.1406216943743817	0.2297430298071993	0.7993677829673819	0.171035566444185	
119	3.966666666666667	-0.006264269024350659	0.8137264839061199	0.04975187031799351	-0.11052869982301096	0.7961124854118163	0.02724576413024751	-0.11385313445618261	0.39241864095855533	0.06673530680859867	-0.1388921050241651	0.006596331375851288	0.006611869453242236	-0.11689304749961996	-0.07626141855454317	0.18827515664800906	-0.1762071775087457	-0.07962176207301573	0.14775783310840263	-0.12936687274093858	-0.06307853040488931	-0.030199650188119036	0.09393978787154737	0.792016662212103	0.08019731097914308	0.11224144987324929	0.37926506413746447	0.06275718835082375	0.12986902390610003	-0.0026166254224333986	0.008105743153436502	0.12809794854861556	-0.08064280771335877	0.1753603635379744	0.1884116529845379	-0.07325728013960182	0.15436324638713855	0.11431150845073637	-0.05864812663293536	-0.03065629956478192	-0.009436816338123337	1.3994802009458363	0.1963497411330145	-0.01859700427989782	1.6316967704442682	0.2325984516458429	-0.017334623240709748	1.4870461535379016	0.32948844491791707	-0.16822572918186032	1.316195575885742	0.14379228803247263	-0.20699918425217761	1.0436240917835933	0.06742879451743979	-0.23130006126637181	0.796304413026302	0.114566506535237	0.15011032316477899	1.3190963235958253	0.20519322310687227	0.1968560953974897	1.0430741405517803	0.13864084359640336	0.2306335483821933	0.7986131828743729	0.1622584015195285	
120	4.0	-0.010283892059617085	0.8085212418432309	0.02731568243341312	-0.11499624479625149	0.7962015876499561	0.005483720802358285	-0.11455055798699054	0.3917627279474206	0.08299079802187838	-0.13874609905320692	0.0063924265456221235	0.009071570969675886	-0.11750535392792757	-0.07714645115322083	0.18697352633414915	-0.17729532348205726	-0.07895979439118206	0.14813423768527645	-0.12946178577192452	-0.062249036414239	-0.03086741299523394	0.09229992905128155	0.7907364583282483	0.06107205951366962	0.11107272654584938	0.3782301299390375	0.07645662791389823	0.1294471395345754	-0.0018736767712868407	0.011839871679743923	0.12939130006631702	-0.08123697022493757	0.17482778660800008	0.18809830803859318	-0.07321025301362531	0.15442726314276115	0.11365751168123285	-0.05898104458797923	-0.02721925731720235	-0.00866073677388008	1.3827410509357707	0.2105091079535398	-0.01755403498326634	1.6138435111802363	0.25501567315706836	-0.017059730893023227	1.468553246094815	0.34830744834801985	-0.1682102274028926	1.3022376831366218	0.15761559134855482	-0.21182431167582047	1.0339066944588102	0.06294651949223869	-0.23363262115798	0.7857487605456615	0.11596144015132248	0.14999439866616598	1.3041041681269039	0.21976598206399078	0.19777949168930742	1.0312497849112119	0.14109756123787753	0.23304253740778838	0.7935922498016844	0.17134530174495569	
121	4.033333333333333	-0.013627935140240934	0.7968786749285518	0.0029305449497938427	-0.11882343877147697	0.7881138375391118	-0.018520679815619223	-0.11474159945316062	0.3887351905182496	0.10203536643267153	-0.14021756402448865	0.005284097117363063	0.011782318944300155	-0.11835785730183845	-0.07836437648628876	0.18665344789077798	-0.17771503022317145	-0.07848534646453532	0.14948043067728328	-0.13142748367614393	-0.06215146500282032	-0.031449424090845474	0.090841016881697	0.7813203432366044	0.03991780951772216	0.11256446623993095	0.3746716356828203	0.09330773661215681	0.1292243276543787	-0.0011072377818393767	0.01599535218047024	0.13070750511041374	-0.08158248792766032	0.1751643137269224	0.1865509256702684	-0.07319455285491303	0.15284463124193517	0.11364293125492564	-0.058995672455852625	-0.02122934059933883	-0.008638957511259631	1.3553659580587352	0.2266115777044596	-0.016622288680224497	1.5840879169233768	0.27884798238465847	-0.015116418539478461	1.4387125542481618	0.36774930839075304	-0.16938323150860524	1.275630700518142	0.17362250911436874	-0.21852845725668982	1.011863406755054	0.05972023599235224	-0.23932656814895306	0.7634617833426032	0.11819745191415379	0.14938856078257512	1.2781361042389277	0.23666385785183985	0.2006326335536224	1.0082906404443728	0.1468160807790515	0.2373056509964283	0.777053515032395	0.19131844272974935	
